<svg width="110" height="35" viewBox="0 0 110 35" fill="none" xmlns="http://www.w3.org/2000/svg">
<path d="M6.378 6.84L13.722 2.59C14.4927 2.13666 15.1727 2.08 15.762 2.42C16.374 2.76 16.68 3.38333 16.68 4.29V7.69L13.722 9.39V5.99L6.378 10.24V29.96L13.722 25.71V17.55L9.302 20.1V16.7L16.68 12.45V27.41L13.722 29.11V25.71C13.722 26.2993 13.586 26.934 13.314 27.614C13.042 28.294 12.6793 28.9287 12.226 29.518C11.7727 30.0847 11.2853 30.5153 10.764 30.81L6.378 33.36C5.58467 33.8133 4.89333 33.87 4.304 33.53C3.71467 33.19 3.42 32.5667 3.42 31.66V11.94C3.42 11.328 3.556 10.6933 3.828 10.036C4.1 9.356 4.46267 8.73266 4.916 8.166C5.36933 7.57666 5.85667 7.13467 6.378 6.84ZM13.722 25.71V29.11L10.764 27.41V24.01L13.722 25.71ZM13.722 17.55V25.71L10.764 24.01V15.85L13.722 17.55ZM13.722 5.99V9.39L10.764 7.69V4.29L13.722 5.99ZM16.68 12.45L9.302 16.7L6.378 15L13.722 10.75L16.68 12.45ZM9.302 16.7V20.1L6.378 18.4V15L9.302 16.7ZM13.722 25.71L6.378 29.96L3.42 28.26L10.764 24.01L13.722 25.71ZM15.796 2.42C15.184 2.08 14.4927 2.13666 13.722 2.59L6.378 6.84C5.85667 7.13467 5.36933 7.57666 4.916 8.166C4.46267 8.73266 4.1 9.356 3.828 10.036C3.556 10.6933 3.42 11.328 3.42 11.94V31.66C3.42 32.5667 3.71467 33.19 4.304 33.53L1.346 31.83C0.756667 31.49 0.462 30.8667 0.462 29.96V10.24C0.462 9.628 0.598 8.99333 0.87 8.336C1.142 7.656 1.50467 7.03267 1.958 6.466C2.41133 5.87667 2.89867 5.43467 3.42 5.14L10.764 0.889999C11.5573 0.436665 12.2487 0.379998 12.838 0.719999L15.796 2.42ZM25.5362 29.96L32.8802 25.71V29.11L25.5362 33.36C24.7429 33.8133 24.0515 33.87 23.4622 33.53C22.8729 33.19 22.5782 32.5667 22.5782 31.66V4.8L25.5362 3.1V29.96ZM25.5362 3.1L22.5782 4.8L19.6202 3.1L22.5782 1.4L25.5362 3.1ZM32.8802 25.71L25.5362 29.96L22.5782 28.26L29.9222 24.01L32.8802 25.71ZM22.5782 4.8V31.66C22.5782 32.5667 22.8729 33.19 23.4622 33.53L20.5042 31.83C19.9149 31.49 19.6202 30.8667 19.6202 29.96V3.1L22.5782 4.8ZM41.7061 6.84L49.0501 2.59C49.8208 2.13666 50.5008 2.08 51.0901 2.42C51.7021 2.76 52.0081 3.38333 52.0081 4.29V24.01C52.0081 24.5993 51.8608 25.234 51.5661 25.914C51.2941 26.594 50.9315 27.2287 50.4781 27.818C50.0475 28.3847 49.5715 28.8153 49.0501 29.11L41.7061 33.36C40.9128 33.8133 40.2215 33.87 39.6321 33.53C39.0428 33.19 38.7481 32.5667 38.7481 31.66V11.94C38.7481 11.328 38.8841 10.6933 39.1561 10.036C39.4281 9.356 39.7908 8.73266 40.2441 8.166C40.6975 7.57666 41.1848 7.13467 41.7061 6.84ZM41.7061 29.96L49.0501 25.71V5.99L41.7061 10.24V29.96ZM49.0501 5.99V25.71L46.0921 24.01V4.29L49.0501 5.99ZM49.0501 25.71L41.7061 29.96L38.7481 28.26L46.0921 24.01L49.0501 25.71ZM51.1241 2.42C50.5121 2.08 49.8208 2.13666 49.0501 2.59L41.7061 6.84C41.1848 7.13467 40.6975 7.57666 40.2441 8.166C39.7908 8.73266 39.4281 9.356 39.1561 10.036C38.8841 10.6933 38.7481 11.328 38.7481 11.94V31.66C38.7481 32.5667 39.0428 33.19 39.6321 33.53L36.6741 31.83C36.0848 31.49 35.7901 30.8667 35.7901 29.96V10.24C35.7901 9.628 35.9261 8.99333 36.1981 8.336C36.4701 7.656 36.8328 7.03267 37.2861 6.466C37.7395 5.87667 38.2268 5.43467 38.7481 5.14L46.0921 0.889999C46.8855 0.436665 47.5768 0.379998 48.1661 0.719999L51.1241 2.42ZM68.2083 20.95L60.8643 25.2V32L57.9063 33.7V8.54L68.2083 2.59C68.979 2.13666 69.659 2.08 70.2483 2.42C70.8603 2.76 71.1663 3.38333 71.1663 4.29V12.45C71.1663 13.0393 71.019 13.674 70.7243 14.354C70.4523 15.034 70.0897 15.6687 69.6363 16.258C69.2057 16.8247 68.7297 17.2553 68.2083 17.55C68.979 17.0967 69.659 17.04 70.2483 17.38C70.8603 17.72 71.1663 18.3433 71.1663 19.25V26.05L68.2083 27.75V20.95ZM68.2083 17.55V5.99L60.8643 10.24V21.8L68.2083 17.55ZM68.2083 20.95V27.75L65.2503 26.05V19.25L68.2083 20.95ZM70.2823 17.38C69.6703 17.04 68.979 17.0967 68.2083 17.55L65.2503 15.85C66.0437 15.3967 66.735 15.34 67.3243 15.68L70.2823 17.38ZM68.2083 5.99V17.55L65.2503 15.85V4.29L68.2083 5.99ZM68.2083 17.55L60.8643 21.8L57.9063 20.1L65.2503 15.85L68.2083 17.55ZM70.2823 2.42C69.6703 2.08 68.979 2.13666 68.2083 2.59L57.9063 8.54L54.9483 6.84L65.2503 0.889999C66.0437 0.436665 66.735 0.379998 67.3243 0.719999L70.2823 2.42ZM57.9063 8.54V33.7L54.9483 32V6.84L57.9063 8.54ZM82.3685 27.24V10.24L77.0645 13.3V9.9L90.5965 2.08V5.48L85.2925 8.54V25.54L90.5965 22.48V25.88L77.0645 33.7V30.3L82.3685 27.24ZM82.3685 27.24L77.0645 30.3L74.1065 28.6L79.4105 25.54L82.3685 27.24ZM77.0645 30.3V33.7L74.1065 32V28.6L77.0645 30.3ZM90.5965 22.48L85.2925 25.54L82.3685 23.84L87.6725 20.78L90.5965 22.48ZM82.3685 10.24V27.24L79.4105 25.54V8.54L82.3685 10.24ZM90.5965 2.08L77.0645 9.9L74.1065 8.2L87.6725 0.379998L90.5965 2.08ZM77.0645 9.9V13.3L74.1065 11.6V8.2L77.0645 9.9ZM99.4796 6.84L106.824 2.59C107.594 2.13666 108.274 2.08 108.864 2.42C109.476 2.76 109.782 3.38333 109.782 4.29V26.05L106.824 27.75V20.95L99.4796 25.2V32L96.5216 33.7V11.94C96.5216 11.328 96.6576 10.6933 96.9296 10.036C97.2016 9.356 97.5642 8.73266 98.0176 8.166C98.4709 7.57666 98.9582 7.13467 99.4796 6.84ZM106.824 17.55V5.99L99.4796 10.24V21.8L106.824 17.55ZM106.824 20.95V27.75L103.866 26.05V19.25L106.824 20.95ZM106.824 5.99V17.55L103.866 15.85V4.29L106.824 5.99ZM106.824 17.55L99.4796 21.8L96.5216 20.1L103.866 15.85L106.824 17.55ZM108.898 2.42C108.286 2.08 107.594 2.13666 106.824 2.59L99.4796 6.84C98.9582 7.13467 98.4709 7.57666 98.0176 8.166C97.5642 8.73266 97.2016 9.356 96.9296 10.036C96.6576 10.6933 96.5216 11.328 96.5216 11.94V33.7L93.5636 32V10.24C93.5636 9.628 93.6996 8.99333 93.9716 8.336C94.2436 7.656 94.6062 7.03267 95.0596 6.466C95.5129 5.87667 96.0002 5.43467 96.5216 5.14L103.866 0.889999C104.659 0.436665 105.35 0.379998 105.94 0.719999L108.898 2.42Z" fill="#3C0061"/>
</svg>
